<?xml version="1.0" encoding="UTF-8"?>
<svg id="Layer_1" data-name="Layer 1" xmlns="http://www.w3.org/2000/svg" version="1.1" viewBox="0 0 384 422.8">
  <defs>
    <style>
      .cls-1 {
        fill: #1a2027;
      }

      .cls-1, .cls-2 {
        stroke-width: 0px;
      }

      .cls-2 {
        fill: #fff;
      }
    </style>
  </defs>
  <path class="cls-1" d="M64,412.7c-2.3-5.5-4.5-10.5-6.6-15.5-1.4-3.3-3-6.5-4.3-9.8-.6-1.5-1.4-2.3-3.2-2.1-1.2.2-2.5,0-3.7,0-15.4,1.2-25.3-12-25.3-25.4.1-35.5,0-71.1,0-106.6,0-37,.3-74-.1-110.9-.1-13.1,10.1-25.3,25-25.3,34.6.1,69.1,0,103.7.1,2.5,0,3.9-.6,5.1-3,3.3-6.5,8-12,14.8-15.7-3-5-6-9.8-9-14.7-9.9-16.1-19.7-32.1-29.6-48.2-.5-.8-1.1-1.6-1.6-2.4-1.6-3.1-3.7-4.6-7.6-4.7-6.9-.1-12.9-7.4-12.6-14.4C109.2,6.4,115.4.2,123.2,0c7.4-.2,13.9,5.6,14.2,13.1,0,2.8-.6,5.7-1.6,8.4-.6,1.6-.5,2.6.3,3.9,13.8,22.4,27.6,44.9,41.5,67.3.4.6,1.4,1.3,1.9,1.2,7.8-2.2,15.6-1.8,23.3.3,7-11.3,13.9-22.5,20.8-33.7,7-11.4,14-22.7,21.2-34,1.1-1.8,1.2-3,.2-4.9-3.8-7-1-16.2,5.7-19.8,7-3.8,15.7-1.2,19.5,5.8,5,9.2-1.5,20.9-11.8,21-2.6,0-4,.9-5.4,3.1-13,21.6-26.2,43.1-39.4,64.6-.2.4-.5.8-.8,1.4.5.4,1,.9,1.5,1.3,5.8,4.1,10.4,9.2,13.4,15.6,1,2,2.1,2.7,4.4,2.7,35.6,0,71.3,0,106.9,0,11,0,19.7,6,23,16,.9,2.6,1.2,5.5,1.2,8.2,0,43,0,86.1,0,129.1,0,30.1,0,60.3,0,90.4,0,10.9-5.9,20.2-15.4,23.1-3.8,1.2-8.2,1-12.3,1.2-2,0-3.1.6-3.9,2.5-3.4,8.2-6.9,16.3-10.6,24.9,5.9,0,11.1,0,16.4,0,1.4,0,2.9,0,4.3.3,2.4.4,3.8,1.9,3.8,4.3,0,2.4-1.5,3.9-3.7,4.5-1.1.3-2.3.2-3.4.2-99.2,0-198.4,0-297.6,0-5.6,0-11.2,0-16.8,0-1.1,0-2.3-.1-3.4-.3-2.4-.4-3.4-2.2-3.5-4.3-.1-2.3,1.3-3.8,3.5-4.3,1.4-.3,2.9-.4,4.3-.4,11.8,0,23.7,0,35.5,0,1,0,2.1,0,3.6,0ZM191.7,371.6s0,0,0,0c48,0,95.9,0,143.9.1,7.2,0,13.8-4.9,13.7-13.5-.3-38.9-.1-77.8-.1-116.7,0-32.7,0-65.5,0-98.2,0-8.1-4.6-12.9-12.3-12.9-96,0-192,0-288,0-9.5,0-14.2,4.8-14.2,14.3,0,38,0,76.1,0,114.1,0,33.2,0,66.4,0,99.7,0,6.3,3.1,11.1,8.7,12.5,2.6.7,5.3.5,8,.5,46.8,0,93.6,0,140.4,0ZM290.4,412.6c-1.7-4.6-3.3-8.6-4.6-12.6-.7-2.2-1.8-2.9-4.1-2.9-40.4,0-80.9,0-121.3,0-19.3,0-38.5.1-57.8.2-1,0-2.7.4-2.9,1-1.7,4.6-3.1,9.4-4.6,14.3h195.4Z"/>
  <path class="cls-1" d="M359.6,422.8c-1.9-.9-4.1-1.4-5.5-2.7-.9-.8-1.1-3.2-.5-4.4.5-1.2,2.3-2.1,3.8-2.5,1.7-.4,3.6-.2,5.5-.2,2.6,0,4.2,1.2,4.6,3.8.3,2.3-1.2,4.5-3.7,5.1-1.2.3-2.5.2-3.7.4-.1.2-.2.4-.3.6Z"/>
  <path class="cls-1" d="M8.6,417.4c0,2.4-1.7,4.3-4.1,4.3-2.6,0-4.5-1.7-4.5-4.2,0-2.5,1.8-4.5,4.2-4.5,2.4,0,4.3,1.9,4.3,4.4Z"/>
  <path class="cls-1" d="M379.6,421.8c-2.2,0-4-1.9-4.1-4.3,0-2.5,1.6-4.4,3.9-4.4,2.2,0,4.6,2.2,4.6,4.3,0,2.3-2.2,4.5-4.4,4.5Z"/>
  <path class="cls-2" d="M191.7,371.6c-46.8,0-93.6,0-140.4,0-2.7,0-5.5.1-8-.5-5.5-1.4-8.7-6.2-8.7-12.5,0-33.2,0-66.4,0-99.7,0-38,0-76.1,0-114.1,0-9.5,4.7-14.3,14.2-14.3,96,0,192,0,288,0,7.7,0,12.2,4.8,12.3,12.9,0,32.7,0,65.5,0,98.2,0,38.9-.1,77.8.1,116.7,0,8.7-6.5,13.5-13.7,13.5-48-.2-95.9-.1-143.9-.1,0,0,0,0,0,0ZM192.7,365.4c0,0,0-.1,0-.2,39.7,0,79.4,0,119,0,8.7,0,17.3,0,26,0,3.1,0,5.6-2.4,5.5-4.8-.1-2.4-2.1-3.8-5.5-3.9-.7,0-1.3,0-2,0-18.3,0-36.6,0-54.9,0-4.3,0-5.3-1-5.3-5.3,0-65.9,0-131.7,0-197.6,0-1.1,0-2.1,0-3.2.3-2.1,1.7-3,3.8-2.4,2.1.6,2.3,2.3,2.3,4.2,0,19.7.2,39.5.2,59.2,0,15.3-.1,30.6-.1,45.9,0,4.7,1.5,6.2,6.3,6.2,16.5,0,32.9,0,49.4,0,4.2,0,5.8-1.6,5.8-5.7,0-37.6,0-75.1,0-112.7,0-6.2-2.1-8.2-8.4-8.2-95,0-190.1,0-285.1,0-6.5,0-9,2.6-9,9.1,0,6.6.1,13.3.1,19.9,0,62.9,0,125.8-.1,188.6,0,9.7,1.2,10.9,10.8,10.9,47.1,0,94.2,0,141.2,0ZM312.4,285.9h0c-6.5,0-13.1,0-19.6,0-2.8,0-4.4,1.5-4.5,3.9,0,2.1,1.7,3.8,4.5,3.8,12.9,0,25.7,0,38.6,0,2.7,0,4.4-1.6,4.4-3.9,0-2.4-1.6-3.8-4.4-3.8-6.3,0-12.7,0-19,0ZM312.3,315.9h0c-6.3,0-12.7-.1-19,0-2.9,0-4.6,1.4-4.7,3.6-.1,2.4,1.5,4,4.6,4,12.7,0,25.4,0,38.1,0,2.8,0,4.4-1.4,4.5-3.8,0-2.5-1.3-3.7-4.3-3.7-6.4,0-12.7,0-19.1,0ZM312.1,278.5h0c6.3,0,12.5,0,18.8,0,3.3,0,4.8-1.1,4.8-3.6,0-2.5-1.7-3.9-5-3.9-4.4,0-8.9,0-13.3,0-8,0-16,0-24,.1-3.2,0-5.1,1.6-5.1,3.9,0,2.3,1.6,3.4,5,3.4,6.3,0,12.5,0,18.8,0ZM312.1,308.5s0,0,0,0c6.6,0,13.3,0,19.9,0,2.1,0,3.5-1.1,3.7-3.2.3-2.3-1-3.6-3.2-4-.7-.1-1.3-.2-2-.2-12.4,0-24.8-.1-37.2-.1-3,0-4.8,1.5-4.8,3.8,0,2.2,1.8,3.7,4.9,3.7,6.2,0,12.5,0,18.7,0ZM293.6,347.8c3.5,0,6.2-2.7,6.1-6.2,0-3-2.9-5.5-6.3-5.5-3.3,0-5.8,2.6-5.7,5.9,0,3.3,2.6,5.8,5.9,5.8ZM312.5,336.1c-3.5,0-5.8,2.2-5.8,5.7,0,3.5,2.2,6,5.5,6.1,3.7,0,6.5-2.5,6.5-5.9,0-3.4-2.7-5.9-6.2-5.9ZM331.4,347.9c3.4,0,6.1-2.7,6-5.9,0-3.1-3-5.8-6.2-5.9-3.2,0-5.7,2.4-5.8,5.5,0,3.6,2.5,6.3,6,6.3Z"/>
  <path class="cls-1" d="M192.7,365.4c-47.1,0-94.2,0-141.2,0-9.5,0-10.8-1.2-10.8-10.9,0-62.9,0-125.8.1-188.6,0-6.6,0-13.3-.1-19.9,0-6.6,2.5-9.1,9-9.1,95,0,190.1,0,285.1,0,6.3,0,8.4,2,8.4,8.2,0,37.6,0,75.1,0,112.7,0,4.2-1.5,5.7-5.8,5.7-16.5,0-32.9,0-49.4,0-4.8,0-6.3-1.5-6.3-6.2,0-15.3.1-30.6.1-45.9,0-19.7-.2-39.5-.2-59.2,0-1.8-.2-3.6-2.3-4.2-2-.5-3.4.3-3.8,2.4-.2,1,0,2.1,0,3.2,0,65.9,0,131.7,0,197.6,0,4.2,1,5.2,5.3,5.3,18.3,0,36.6,0,54.9,0,.7,0,1.3,0,2,0,3.4,0,5.3,1.5,5.5,3.9.1,2.5-2.3,4.8-5.5,4.8-8.7,0-17.3,0-26,0-39.7,0-79.4,0-119,0,0,0,0,.1,0,.2ZM159.3,338.8c23.9-.7,47.8-1.2,71.5-4.3,15.8-2.1,25.1-10.3,27.6-26,1.6-10,2.4-20.1,2.9-30.1,1.3-29.3,1.2-58.5-2.5-87.6-2-15.8-10.8-26.8-27.6-28.4-17.1-1.7-34.3-3.2-51.5-3.9-27.3-1.1-54.7-.3-81.9,2.3-7.2.7-14.7,1.4-21.5,3.7-11.3,3.7-17.1,12.7-18.3,24.1-1.5,13.4-2.7,26.8-3.1,40.3-1,27-.8,54.1,3,81,1.8,12.4,10.1,21.6,22.1,24,4.4.9,8.9,1.6,13.4,1.9,22,1.2,44,2.2,66,3.3ZM311.2,203.4c13,0,23.2-10.3,23.2-23.2,0-13.4-10.5-23.9-23.7-23.9-12.7,0-23,10.7-22.9,23.6.1,13.1,10.5,23.5,23.4,23.5ZM311.5,245.5c8.1,0,14.7-6.6,14.7-14.6,0-7.8-6.7-14.3-14.7-14.4-8.2,0-14.6,6.4-14.5,14.7,0,8,6.5,14.3,14.6,14.3ZM258.6,347.2c2.1,0,3.8-1.8,3.7-3.9,0-2.1-1.7-3.7-4-3.6-2.3.1-3.5,1.5-3.5,3.7,0,2.2,1.6,3.9,3.8,3.8ZM258.5,150.2c-2.3,0-4.1,1.8-4,3.9.1,2,1.1,3.5,3.3,3.6,2.2.1,4.2-1.6,4.1-3.8,0-2.3-1.5-3.3-3.4-3.7ZM61.7,343.3c0-1.9-1.7-3.7-3.6-3.7-2.1,0-3.7,1.6-3.6,3.9.1,2.1,1.1,3.6,3.5,3.7,2.1,0,3.7-1.7,3.7-3.9ZM57.7,157.6c2.4,0,3.9-1.7,3.8-3.8,0-2-1.9-3.8-3.7-3.6-2.2.3-3.5,1.7-3.4,3.9,0,2.2,1.4,3.5,3.3,3.5Z"/>
  <path class="cls-1" d="M312.4,285.9c6.3,0,12.7,0,19,0,2.8,0,4.4,1.4,4.4,3.8,0,2.3-1.6,3.9-4.4,3.9-12.9,0-25.7,0-38.6,0-2.8,0-4.6-1.7-4.5-3.8,0-2.3,1.7-3.8,4.5-3.9,6.5,0,13.1,0,19.6,0h0Z"/>
  <path class="cls-1" d="M312.3,315.9c6.4,0,12.7,0,19.1,0,3,0,4.4,1.3,4.3,3.7,0,2.4-1.6,3.8-4.5,3.8-12.7,0-25.4,0-38.1,0-3,0-4.7-1.6-4.6-4,.1-2.2,1.8-3.6,4.7-3.6,6.3,0,12.7,0,19,0h0Z"/>
  <path class="cls-1" d="M312.1,278.5c-6.3,0-12.5,0-18.8,0-3.4,0-5-1.1-5-3.4,0-2.3,1.9-3.9,5.1-3.9,8-.1,16,0,24-.1,4.4,0,8.9,0,13.3,0,3.3,0,5,1.4,5,3.9,0,2.5-1.5,3.5-4.8,3.6-6.3,0-12.5,0-18.8,0h0Z"/>
  <path class="cls-1" d="M312.1,308.5c-6.2,0-12.5,0-18.7,0-3.1,0-4.9-1.5-4.9-3.7,0-2.3,1.8-3.8,4.8-3.8,12.4,0,24.8,0,37.2.1.7,0,1.3.1,2,.2,2.2.4,3.5,1.7,3.2,4-.3,2.1-1.6,3.2-3.7,3.2-6.6,0-13.3,0-19.9,0,0,0,0,0,0,0Z"/>
  <path class="cls-1" d="M293.6,347.8c-3.3,0-5.8-2.5-5.9-5.8,0-3.3,2.4-5.9,5.7-5.9,3.4,0,6.2,2.5,6.3,5.5,0,3.5-2.6,6.2-6.1,6.2Z"/>
  <path class="cls-1" d="M312.5,336.1c3.4,0,6.1,2.6,6.2,5.9,0,3.3-2.8,5.9-6.5,5.9-3.2,0-5.5-2.5-5.5-6.1,0-3.5,2.2-5.7,5.8-5.7Z"/>
  <path class="cls-1" d="M331.4,347.9c-3.4,0-6-2.7-6-6.3,0-3.1,2.6-5.5,5.8-5.5,3.3,0,6.2,2.7,6.2,5.9,0,3.3-2.6,5.9-6,5.9Z"/>
  <path class="cls-2" d="M159.3,338.8c-22-1.1-44-2.1-66-3.3-4.5-.2-9-.9-13.4-1.9-12-2.5-20.4-11.6-22.1-24-3.8-26.9-4-53.9-3-81,.5-13.4,1.7-26.9,3.1-40.3,1.3-11.4,7.1-20.4,18.3-24.1,6.9-2.2,14.3-3,21.5-3.7,27.3-2.5,54.6-3.4,81.9-2.3,17.2.7,34.4,2.2,51.5,3.9,16.8,1.7,25.6,12.6,27.6,28.4,3.7,29.1,3.8,58.4,2.5,87.6-.4,10.1-1.3,20.2-2.9,30.1-2.5,15.7-11.8,23.9-27.6,26-23.7,3.1-47.6,3.6-71.5,4.3Z"/>
  <path class="cls-2" d="M311.2,203.4c-12.9,0-23.3-10.4-23.4-23.5-.1-12.9,10.2-23.6,22.9-23.6,13.2,0,23.7,10.5,23.7,23.9,0,13-10.2,23.2-23.2,23.2ZM311.2,162.2c-10,0-17.7,7.5-17.8,17.4,0,9.6,8.2,17.8,17.9,17.8,9.4,0,17.5-8,17.5-17.2,0-10-7.8-18-17.6-18Z"/>
  <path class="cls-2" d="M311.5,245.5c-8.1,0-14.5-6.3-14.6-14.3,0-8.2,6.4-14.7,14.5-14.7,8,0,14.7,6.6,14.7,14.4,0,8.1-6.6,14.6-14.7,14.6ZM303.2,231.1c0,4.5,3.9,8.4,8.2,8.3,4.3,0,8.7-4.4,8.7-8.5,0-4.2-4.4-8.5-8.6-8.4-4.7.1-8.3,3.9-8.2,8.6Z"/>
  <path class="cls-2" d="M258.6,347.2c-2.1,0-3.8-1.6-3.8-3.8,0-2.2,1.2-3.6,3.5-3.7,2.2-.1,4,1.5,4,3.6,0,2.1-1.7,3.9-3.7,3.9Z"/>
  <path class="cls-2" d="M258.5,150.2c1.8.3,3.3,1.4,3.4,3.7,0,2.2-1.8,4-4.1,3.8-2.2-.1-3.2-1.6-3.3-3.6-.1-2.1,1.8-4,4-3.9Z"/>
  <path class="cls-2" d="M61.7,343.3c0,2.1-1.6,3.9-3.7,3.9-2.4,0-3.4-1.5-3.5-3.7-.1-2.3,1.5-4,3.6-3.9,1.9,0,3.6,1.8,3.6,3.7Z"/>
  <path class="cls-2" d="M57.7,157.6c-1.9,0-3.3-1.3-3.3-3.5,0-2.2,1.2-3.6,3.4-3.9,1.9-.2,3.7,1.6,3.7,3.6,0,2.1-1.5,3.8-3.8,3.8Z"/>
  <path class="cls-1" d="M311.2,162.2c9.8,0,17.6,8,17.6,18,0,9.2-8.1,17.2-17.5,17.2-9.7,0-18-8.3-17.9-17.8,0-9.9,7.8-17.4,17.8-17.4ZM300.3,179.1c-.2,6.2,4.7,11.7,10.5,11.9,5.8.1,11.2-4.9,11.4-10.7.3-6-4.8-11.4-10.8-11.6-5.9-.2-10.9,4.5-11.1,10.4Z"/>
  <path class="cls-1" d="M303.2,231.1c0-4.7,3.6-8.5,8.2-8.6,4.2,0,8.6,4.2,8.6,8.4,0,4.1-4.3,8.4-8.7,8.5-4.3,0-8.2-3.9-8.2-8.3Z"/>
  <path class="cls-2" d="M300.3,179.1c.2-5.9,5.2-10.6,11.1-10.4,6,.2,11.1,5.6,10.8,11.6-.2,5.8-5.6,10.9-11.4,10.7-5.8-.1-10.7-5.6-10.5-11.9Z"/>
</svg>